<svg width="512" height="512" viewBox="0 0 512 512" fill="none" xmlns="http://www.w3.org/2000/svg">
<path d="M256 507.5C394.9 507.5 507.5 394.9 507.5 256C507.5 117.1 394.9 4.5 256 4.5C117.1 4.5 4.5 117.1 4.5 256C4.5 394.9 117.1 507.5 256 507.5Z" fill="black" stroke="white" stroke-width="5" stroke-miterlimit="10"/>
<path d="M256 447C361.486 447 447 361.486 447 256C447 150.514 361.486 65 256 65C150.514 65 65 150.514 65 256C65 361.486 150.514 447 256 447Z" fill="white"/>
<path d="M125.598 101.917L119.869 107.75L111.559 104.144L101.134 114.76L105.014 122.876L99.428 128.564L83.029 92.1401L88.598 86.4701L125.598 101.917ZM105.395 101.471L91.946 95.4521L98.279 108.717L105.395 101.471Z" fill="white"/>
<path d="M131.079 97.8181L110.207 66.9981L116.262 62.8981L142.814 74.9371L128.876 54.3551L134.658 50.4391L155.53 81.2591L149.286 85.4881L123.25 73.8041L136.861 93.9021L131.079 97.8181Z" fill="white"/>
<path d="M172.8 72.9341L160.513 44.5541L150.377 48.9421L147.876 43.1631L175.021 31.4121L177.523 37.1901L167.41 41.5681L179.697 69.9481L172.8 72.9341Z" fill="white"/>
<path d="M197.518 63.6041L187.363 27.7931L194.593 25.7421L204.748 61.5531L197.518 63.6041Z" fill="white"/>
<path d="M214.91 58.833L209.556 21.997L234.808 18.327L235.714 24.558L217.9 27.147L219.167 35.866L234.544 33.631L235.45 39.862L220.073 42.097L222.348 57.751L214.91 58.833Z" fill="white"/>
<path d="M280.038 55.567L271.865 55.349L268.843 46.81L253.969 46.413L250.672 54.7831L242.702 54.57L258.189 17.748L266.133 17.96L280.038 55.567ZM266.599 40.477L261.841 26.532L256.446 40.205L266.599 40.477Z" fill="white"/>
<path d="M287.515 44.6341L294.807 45.5331C294.702 48.0241 295.18 49.9781 296.244 51.3951C297.307 52.8121 298.953 53.7691 301.183 54.2661C303.545 54.7931 305.437 54.6911 306.858 53.9581C308.279 53.2251 309.138 52.1901 309.437 50.8521C309.628 49.9941 309.54 49.2061 309.17 48.4911C308.8 47.7751 308.037 47.0541 306.882 46.3281C306.089 45.8391 304.249 44.8731 301.362 43.4321C297.647 41.5801 295.156 39.7661 293.887 37.9921C292.103 35.4961 291.531 32.8101 292.172 29.9351C292.585 28.0851 293.495 26.4711 294.904 25.0941C296.312 23.7181 298.097 22.8281 300.26 22.4261C302.421 22.0241 304.899 22.1341 307.691 22.7581C312.251 23.7751 315.461 25.5411 317.319 28.0541C319.177 30.5671 319.792 33.5061 319.164 36.8681L311.757 35.5541C311.86 33.6171 311.486 32.1241 310.636 31.0761C309.785 30.0281 308.327 29.2731 306.263 28.8121C304.132 28.3361 302.366 28.4021 300.964 29.0081C300.062 29.3971 299.506 30.0621 299.296 31.0031C299.105 31.8621 299.304 32.6791 299.895 33.4521C300.646 34.4351 302.712 35.7451 306.093 37.3851C309.473 39.0241 311.918 40.4841 313.427 41.7661C314.936 43.0481 315.999 44.5781 316.617 46.3541C317.235 48.1301 317.288 50.1671 316.776 52.4641C316.311 54.5461 315.297 56.3661 313.736 57.9251C312.173 59.4851 310.237 60.4701 307.925 60.8821C305.612 61.2941 302.879 61.1481 299.724 60.4441C295.131 59.4191 291.841 57.5711 289.853 54.8991C287.865 52.2271 287.087 48.8051 287.515 44.6341Z" fill="white"/>
<path d="M350.388 62.9211L356.129 67.9681C353.472 71.2381 350.557 73.2521 347.385 74.0121C344.212 74.7721 340.798 74.3481 337.141 72.7411C332.617 70.7521 329.577 67.5721 328.022 63.2001C326.467 58.8281 326.869 53.9611 329.225 48.5991C331.718 42.9281 335.119 39.1661 339.426 37.3151C343.735 35.4641 348.275 35.5881 353.048 37.6861C357.216 39.5181 360.061 42.2381 361.581 45.8471C362.49 47.9851 362.732 50.5881 362.31 53.6561L354.784 52.2891C355.157 50.3461 354.93 48.5811 354.101 46.9971C353.272 45.4131 351.943 44.2181 350.115 43.4141C347.589 42.3041 345.14 42.3101 342.771 43.4321C340.401 44.5541 338.324 47.1451 336.54 51.2041C334.646 55.5131 334.072 58.9211 334.819 61.4311C335.564 63.9411 337.177 65.7411 339.657 66.8301C341.485 67.6331 343.313 67.7441 345.141 67.1611C346.969 66.5771 348.718 65.1651 350.388 62.9211Z" fill="white"/>
<path d="M359.455 83.5931L379.216 52.0491L385.585 56.0391L365.824 87.5821L359.455 83.5931Z" fill="white"/>
<path d="M380.958 82.6591L387.019 86.8111C385.78 88.9751 385.306 90.9301 385.599 92.6761C385.89 94.4231 386.912 96.0301 388.663 97.4981C390.518 99.0531 392.245 99.8321 393.844 99.8351C395.442 99.8381 396.682 99.3141 397.563 98.2641C398.128 97.5901 398.412 96.8491 398.413 96.0441C398.414 95.2391 398.068 94.2481 397.376 93.0711C396.897 92.2721 395.708 90.5691 393.808 87.9601C391.362 84.6071 389.984 81.8511 389.673 79.6911C389.237 76.6531 389.965 74.0051 391.858 71.7481C393.075 70.2951 394.626 69.2811 396.51 68.7071C398.394 68.1321 400.388 68.1641 402.492 68.8021C404.597 69.4391 406.746 70.6771 408.938 72.5141C412.519 75.5151 414.556 78.5591 415.05 81.6451C415.544 84.7311 414.738 87.6231 412.633 90.3201L406.661 85.7451C407.642 84.0731 407.997 82.5751 407.724 81.2541C407.452 79.9321 406.504 78.5921 404.883 77.2331C403.209 75.8311 401.611 75.0761 400.087 74.9701C399.108 74.9001 398.309 75.2351 397.689 75.9741C397.124 76.6491 396.925 77.4651 397.094 78.4231C397.309 79.6421 398.54 81.7561 400.788 84.7661C403.036 87.7761 404.535 90.1981 405.285 92.0301C406.035 93.8631 406.276 95.7101 406.008 97.5721C405.739 99.4341 404.849 101.267 403.338 103.07C401.968 104.704 400.231 105.855 398.127 106.521C396.023 107.187 393.849 107.171 391.607 106.474C389.364 105.776 387.004 104.389 384.526 102.312C380.92 99.2901 378.848 96.1351 378.312 92.8481C377.776 89.5611 378.659 86.1661 380.958 82.6591Z" fill="white"/>
<path d="M408.097 124.533L431.853 104.733L424.782 96.248L429.619 92.217L448.557 114.94L443.72 118.972L436.664 110.507L412.908 130.307L408.097 124.533Z" fill="white"/>
<path d="M125.667 122.917C125.667 122.917 153.667 156 214.917 157.25C276.168 158.5 310.834 119.333 345.834 123.917C380.834 128.501 408.834 167.25 423.584 174.084L333 425.75C333 425.75 331.167 427.084 322 430.417C312.833 433.75 310.667 434.75 310.667 434.75L350.917 311.833C350.917 311.833 312.167 279.146 277.167 276.833C242.166 274.52 226.25 300.583 167.084 290.583C107.917 280.583 69.5 243.5 69.5 243.5C69.5 243.5 68.085 222.433 84 183.667C99.914 144.902 125.667 122.917 125.667 122.917Z" fill="black"/>
<path d="M69.917 251.25C69.917 251.25 111.001 289.666 172.334 297.333C233.666 305 239.373 282.842 273.25 283.083C294.798 283.236 302.584 292.667 302.584 292.667L249.078 442.337C249.078 442.337 244.898 442.293 238.986 441.645C233.075 440.997 229.445 440.351 229.445 440.351L257 357.5C257 357.5 243.416 348.793 229.75 347C216.082 345.207 208.708 350 183.25 349.5C159.177 349.027 112 336.75 89.917 303.75C67.834 270.75 69.917 251.25 69.917 251.25Z" fill="#FF0000"/>
<path d="M256 444.5C360.106 444.5 444.5 360.106 444.5 256C444.5 151.894 360.106 67.5 256 67.5C151.894 67.5 67.5 151.894 67.5 256C67.5 360.106 151.894 444.5 256 444.5Z" stroke="white" stroke-width="5" stroke-miterlimit="10"/>
</svg>
